<?xml version="1.0" encoding="UTF-8" standalone="no"?>
<!-- Created with Inkscape (http://www.inkscape.org/) -->

<svg
   xmlns:dc="http://purl.org/dc/elements/1.1/"
   xmlns:cc="http://creativecommons.org/ns#"
   xmlns:rdf="http://www.w3.org/1999/02/22-rdf-syntax-ns#"
   xmlns:svg="http://www.w3.org/2000/svg"
   xmlns="http://www.w3.org/2000/svg"
   xmlns:sodipodi="http://sodipodi.sourceforge.net/DTD/sodipodi-0.dtd"
   xmlns:inkscape="http://www.inkscape.org/namespaces/inkscape"
   version="1.1"
   id="svg2"
   xml:space="preserve"
   width="128"
   height="128"
   viewBox="0 0 128 128"
   sodipodi:docname="logo.svg"
   inkscape:version="0.92.3 (2405546, 2018-03-11)"
   inkscape:export-filename="/home/rafael/git/getlink/icon/128.png"
   inkscape:export-xdpi="96"
   inkscape:export-ydpi="96"><metadata
     id="metadata8"><rdf:RDF><cc:Work
         rdf:about=""><dc:format>image/svg+xml</dc:format><dc:type
           rdf:resource="http://purl.org/dc/dcmitype/StillImage" /><dc:title></dc:title></cc:Work></rdf:RDF></metadata><defs
     id="defs6"><clipPath
       clipPathUnits="userSpaceOnUse"
       id="clipPath18"><path
         d="M 0,720 H 1280 V 0 H 0 Z"
         id="path16"
         inkscape:connector-curvature="0" /></clipPath></defs><sodipodi:namedview
     pagecolor="#ffffff"
     bordercolor="#666666"
     borderopacity="1"
     objecttolerance="10"
     gridtolerance="10"
     guidetolerance="10"
     inkscape:pageopacity="0"
     inkscape:pageshadow="2"
     inkscape:window-width="1920"
     inkscape:window-height="1025"
     id="namedview4"
     showgrid="false"
     fit-margin-top="0"
     fit-margin-left="0"
     fit-margin-right="0"
     fit-margin-bottom="0"
     inkscape:zoom="0.76294524"
     inkscape:cx="630.80702"
     inkscape:cy="233.12427"
     inkscape:window-x="1440"
     inkscape:window-y="31"
     inkscape:window-maximized="1"
     inkscape:current-layer="g10" /><g
     id="g10"
     inkscape:groupmode="layer"
     inkscape:label="vimeo_logo_dark"
     transform="matrix(1.3333333,0,0,-1.3333333,-302.68039,451.5611)"><g
       id="g829"
       transform="matrix(0.25451848,0,0,0.25451848,181.40661,192.90673)"><path
         inkscape:connector-curvature="0"
         id="path853-7"
         d="m 329.40304,525.55705 c -2.08122,0.0151 -5.39294,-0.83573 -8.69531,-2.05664 -0.16143,-0.0589 -0.32075,-0.11926 -0.48194,-0.18018 -0.18881,-0.0717 -0.37719,-0.14316 -0.56543,-0.21679 -0.0555,-0.0217 -0.11294,-0.0398 -0.16846,-0.0615 l -10e-4,-10e-4 c -0.16906,-0.067 -0.33341,-0.13962 -0.50098,-0.20948 -3.31056,-1.35718 -6.39227,-3.00975 -7.94238,-4.45898 -10.0659,-9.41069 -11.80654,-25.18183 -3.97266,-35.99267 1.66002,-2.29085 4.79505,-5.33907 7.13379,-6.93458 3.63125,-2.47725 9.13588,-4.39635 13.13965,-4.58056 l 2.22656,-0.10107 0.76465,-2.38477 c 0.42003,-1.31127 1.88315,-5.43384 3.25196,-9.16113 1.36882,-3.72731 2.65703,-7.38164 2.8623,-8.1211 l 0.37207,-1.34473 -15.13477,-5.86084 -15.13623,-5.8623 -2.04931,0.99316 c -5.38055,2.60551 -10.97411,2.23332 -15.71192,-1.04443 -5.69344,-3.93889 -8.09457,-10.83036 -6.16406,-17.68653 0.62115,-2.20599 2.29603,-4.75498 4.46192,-6.79101 2.03872,-1.91647 5.9192,-3.69385 8.74951,-4.00635 7.08234,-0.78197 14.43205,3.86791 16.41211,10.38282 l 0.55078,1.812 14.92383,5.85645 14.92383,5.85498 0.76025,-1.94091 c 0.5086,-1.29998 5.1588,-14.27804 10.27295,-28.60694 3.3254,2.04311 6.92087,3.70442 10.80615,4.8794 3.97518,1.29153 8.2534,2.21324 12.60498,2.64696 -4.98145,11.66193 -8.55921,20.03956 -10.64208,24.95655 l -2.68067,6.32812 14.97071,5.85499 14.97069,5.85498 1.01368,-0.69287 c 1.36092,-0.93077 4.5242,-1.95585 6.55078,-2.12256 2.06345,-0.16975 5.04659,0.31189 7.23926,1.16894 3.5053,1.37034 6.13835,3.79167 7.95703,7.31983 4.38819,8.51301 0.27028,18.73142 -8.81396,21.87451 -3.8274,1.32421 -6.96822,1.24881 -10.76221,-0.25782 -4.28282,-1.70071 -7.12655,-4.58283 -8.84619,-8.96484 l -0.82618,-2.10351 -15.09228,-5.96778 -15.09229,-5.96631 -0.74414,1.49854 c -0.40884,0.82377 -1.94374,4.38117 -3.41162,7.90576 -1.46787,3.52459 -3.14184,7.43007 -3.7207,8.6792 l -1.05323,2.27198 1.8501,1.98633 c 3.91763,4.20606 6.33847,9.89118 6.81592,16.01073 0.324,4.15268 -0.0409,7.37969 -1.2334,10.92774 -3.68031,10.95028 -14.32267,18.52984 -26.1416,18.6167 z m -0.041,-12.63281 c 0.63631,0.007 1.28434,-0.0249 1.94238,-0.0982 3.88736,-0.43286 7.11795,-2.22089 9.79542,-5.42431 1.46889,-1.75744 2.99668,-5.48989 3.19189,-7.79883 0.46333,-5.47984 -1.87014,-10.59228 -6.20068,-13.5835 -1.7502,-1.2089 -4.55661,-2.32062 -6.53321,-2.58838 -6.88585,-0.93267 -13.16118,2.81942 -15.73974,9.41016 -3.13363,8.0095 1.02631,16.20236 8.18848,19.0415 1.64438,0.65181 3.44654,1.0211 5.35546,1.04151 z M 480.71847,405.01945 c -0.26518,0.0197 -0.50444,-0.0758 -0.80127,-0.1919 -0.97047,-0.37969 -1.56364,-1.51873 -2.20898,-4.24804 -0.30527,-1.29112 -1.03577,-4.21388 -1.62451,-6.49365 -2.22059,-8.59962 -3.13556,-12.18932 -4.61133,-18.09375 -0.49292,-1.97221 -1.27509,-5.0081 -1.73877,-6.74708 -1.71333,-6.42668 -2.41351,-9.90933 -2.13427,-10.62305 0.79878,-2.04166 2.43736,-1.90944 8.29394,0.66798 3.64813,1.60543 4.42161,1.87599 4.53662,1.58202 0.0756,-0.19527 0.004,-2.06559 -0.16114,-4.15575 -1.10428,-13.98261 -5.03236,-25.85932 -12.09814,-36.58155 -5.67482,-8.61146 -11.50807,-13.65133 -20.19287,-17.44629 -9.23405,-4.03498 -17.02269,-4.11887 -21.53174,-0.23291 -3.57151,3.07798 -7.52249,9.63747 -11.65723,19.35791 -0.76792,1.80533 -3.29635,7.72592 -4.72411,11.07569 -5.61614,-11.73143 -12.48179,-22.75731 -20.08448,-33.28858 1.01784,-4.39246 1.47245,-8.21294 1.23486,-10.69336 -0.43149,-4.50492 -4.21208,-9.05643 -10.15723,-12.22998 -2.88387,-1.53944 -8.78409,-3.61117 -12.22558,-4.29199 -0.2629,-0.052 -0.53181,-0.0974 -0.7998,-0.14356 -3.49399,-4.0111 -7.03341,-7.97325 -10.59083,-11.8916 -3.89863,-3.91677 -8.10295,-7.77757 -12.59473,-11.27343 4.17954,-1.6407 8.44095,-2.96787 12.56544,-3.87745 15.19663,-3.35131 30.84297,-3.37067 50.3584,-0.063 4.22883,0.71673 8.77726,1.04792 11.19873,0.81446 2.25292,-0.21723 6.64311,-1.2407 7.79883,-1.81787 0.58796,-0.29364 1.3469,-0.58482 1.68603,-0.64746 0.27682,-0.0511 0.44208,-0.0789 0.53613,-0.0937 0.0571,-0.0364 0.11625,-0.0383 0.17432,-0.007 0.0113,1.4e-4 0.026,-0.001 0.0337,0.001 0.002,7.4e-4 0.004,0.005 0.006,0.006 7.5e-4,1e-4 0.008,-3.6e-4 0.009,0 7.5e-4,3.6e-4 0.005,0.005 0.006,0.007 0.002,4.5e-4 0.007,-0.003 0.009,-0.001 0.009,0.004 0.026,0.0245 0.0469,0.0542 0.0339,-0.008 0.0634,-0.0105 0.082,-0.003 0.0396,0.0155 0.0537,0.0774 0.0469,0.15528 0.37318,0.43727 0.9373,1.39382 1.14991,2.02148 0.40284,1.18943 2.94063,4.92412 4.55419,6.70166 1.74547,1.92284 4.89569,4.4429 8.51367,6.81006 6.13139,4.01156 6.7156,4.41189 9.75733,6.68115 3.44024,2.56656 10.36394,8.3872 13.23486,11.12842 9.61617,9.18167 17.07769,19.56641 21.90821,30.48926 6.64724,15.03064 8.7961,29.38556 7.32568,48.92285 -0.19173,2.54827 -0.4324,5.3152 -0.53614,6.14795 -0.2244,1.80321 -0.54453,1.69331 4.8501,1.65234 7.59303,-0.0576 8.33654,0.0255 8.30274,1.71827 0.0769,0.26378 0.0941,0.54129 -0.0308,0.95068 -0.005,0.045 -0.0137,0.0948 -0.0264,0.14648 -0.0201,0.11716 -0.0446,0.22521 -0.0791,0.31348 -0.0298,0.0763 -0.13208,0.25081 -0.30176,0.51709 -0.36805,0.75409 -1.06843,1.89877 -2.45654,4.13233 -0.45078,0.7254 -2.5231,3.67064 -4.60547,6.54492 -2.08229,2.87433 -6.01213,8.31295 -8.7334,12.08496 -8.74258,12.11809 -10.36308,14.36683 -11.51221,14.45215 z"
         style="fill:#17272e;fill-opacity:1;stroke-width:0.27760985" /><g
         transform="translate(411.6583,365.54283)"
         id="g20"><path
           inkscape:connector-curvature="0"
           id="path22"
           style="fill:#17272e;fill-opacity:1;fill-rule:nonzero;stroke:none"
           d="m 0,0 c -0.825,-17.99 -13.383,-42.622 -37.676,-73.886 -25.118,-32.657 -46.368,-48.986 -63.752,-48.986 -10.765,0 -19.881,9.941 -27.323,29.834 -4.971,18.232 -9.941,36.464 -14.911,54.694 -5.528,19.882 -11.455,29.834 -17.796,29.834 -1.381,0 -6.219,-2.91 -14.498,-8.704 l -8.692,11.201 c 9.117,8.013 18.111,16.026 26.961,24.051 12.158,10.51 21.287,16.038 27.372,16.595 14.377,1.382 23.226,-8.449 26.548,-29.493 3.588,-22.705 6.073,-36.828 7.467,-42.355 4.146,-18.838 8.704,-28.247 13.686,-28.247 3.867,0 9.673,6.111 17.42,18.33 7.734,12.22 11.88,21.517 12.437,27.906 1.104,10.546 -3.042,15.832 -12.437,15.832 -4.425,0 -8.983,-1.019 -13.674,-3.031 9.08,29.749 26.427,44.198 52.029,43.374 C -7.856,36.391 1.091,24.075 0,0" /></g></g><path
       style="fill:#17272e;fill-opacity:1;stroke-width:0.27760985"
       d="m 677.31535,525.00725 c -0.16906,-0.067 -0.33416,-0.14041 -0.50172,-0.21026 -3.31056,-1.35718 -6.39201,-3.00939 -7.94212,-4.45862 -10.0659,-9.41069 -11.80683,-25.18225 -3.97294,-35.9931 1.66001,-2.29084 4.79544,-5.33825 7.13419,-6.93376 3.63124,-2.47725 9.13647,-4.39625 13.14024,-4.58046 l 2.22634,-0.10245 0.76389,-2.38405 c 0.42003,-1.31126 1.8835,-5.43378 3.25231,-9.16108 1.36882,-3.7273 2.65709,-7.38177 2.86236,-8.12123 l 0.37293,-1.3446 -15.13566,-5.86164 -15.13562,-5.86173 -2.05015,0.99291 c -5.38055,2.60551 -10.97322,2.23361 -15.71103,-1.04414 -5.69345,-3.93889 -8.0954,-10.82992 -6.16489,-17.68609 0.62115,-2.20599 2.29611,-4.75546 4.462,-6.79149 2.03872,-1.91647 5.91915,-3.693 8.74946,-4.0055 7.08234,-0.78197 14.43192,3.86759 16.41198,10.38249 l 0.551,1.81204 14.92445,5.85535 14.92426,5.85582 0.75939,-1.94098 c 0.70523,-1.80256 8.97321,-24.88224 16.10928,-44.96833 1.68764,-4.75024 4.05514,-11.33611 5.26125,-14.63521 5.94709,-16.26719 23.21299,-65.00276 24.06966,-67.94002 1.79699,-6.16123 2.676,-11.74282 2.36324,-15.00805 -0.43149,-4.50492 -4.21107,-9.05652 -10.15621,-12.23007 -2.88387,-1.53944 -8.78537,-3.61083 -12.22686,-4.29165 -5.89315,-1.16583 -13.10605,-0.86542 -19.84885,0.82628 -10.5928,2.65763 -18.2172,6.3158 -27.85542,13.36501 -1.72951,1.26493 -9.04737,7.81173 -9.21735,8.2462 -0.14499,0.37058 0.33055,0.58687 4.52337,2.05501 4.35,1.5232 4.75581,1.71131 5.66722,2.63005 0.69562,0.70121 0.95422,1.20218 0.88811,1.71977 -0.18395,1.44034 -0.52206,1.70744 -9.24154,7.28713 -1.35152,0.86485 -3.86424,2.4976 -5.58366,3.6284 -1.71942,1.13081 -4.62091,3.01389 -6.44809,4.18452 -1.82718,1.17062 -3.95895,2.54998 -4.73691,3.06539 -0.77797,0.51541 -3.22426,2.11028 -5.4365,3.54391 -2.21222,1.43364 -4.55845,2.97185 -5.21341,3.41869 -2.47502,1.68856 -4.28774,1.73999 -4.91373,0.13922 -0.3573,-0.91365 -0.23887,-2.51772 0.80582,-10.93802 0.65806,-5.30407 1.58598,-12.97491 3.15069,-26.04349 0.22503,-1.87942 0.59856,-4.21498 0.83003,-5.19012 0.13479,-0.56793 0.25524,-1.10363 0.3921,-1.69866 0.009,-0.0579 0.0149,-0.0965 0.0241,-0.15535 0.1179,-0.75093 0.25637,-1.31844 0.4335,-1.76282 0.0143,-0.0682 0.0285,-0.13532 0.0376,-0.15878 0.0506,-0.12939 0.12811,-0.24923 0.22323,-0.35923 0.061,-0.0947 0.12418,-0.18485 0.19375,-0.26304 3.9e-4,-4.3e-4 7e-4,-8.1e-4 0.001,-0.002 0.46695,-0.63875 1.10399,-0.94977 1.79127,-0.81938 0.79785,0.15136 3.23384,2.23651 7.77086,6.6524 1.40452,1.36703 1.93566,1.66482 2.12578,1.19035 0.23046,-0.57531 7.04456,-9.12864 9.82207,-12.32917 5.27984,-6.08395 12.64134,-12.55544 19.42919,-17.0803 8.4264,-5.61714 19.09173,-10.15983 28.96665,-12.33755 15.19663,-3.35131 30.84287,-3.37098 50.3583,-0.0633 4.22883,0.71672 8.77779,1.04716 11.19926,0.8137 2.25292,-0.21722 6.64282,-1.24031 7.79853,-1.81749 0.58796,-0.29363 1.34652,-0.58497 1.68565,-0.6476 0.27682,-0.0511 0.44281,-0.079 0.53686,-0.0939 0.0571,-0.0364 0.11635,-0.038 0.17442,-0.007 0.0113,1.4e-4 0.0248,-0.001 0.0325,0.002 0.002,7.3e-4 0.005,0.005 0.007,0.006 0.001,1e-4 0.007,-6.1e-4 0.008,-2.4e-4 9.3e-4,3.6e-4 0.005,0.005 0.006,0.007 0.002,4.5e-4 0.007,-0.002 0.009,-8.1e-4 0.009,0.004 0.0261,0.0242 0.047,0.0539 0.0339,-0.008 0.0637,-0.0106 0.0823,-0.003 0.0396,0.0155 0.0538,0.0773 0.047,0.15521 0.37318,0.43727 0.93616,1.3932 1.14876,2.02086 0.40285,1.18943 2.94098,4.9242 4.55454,6.70174 1.74547,1.92284 4.89644,4.44283 8.51443,6.80999 6.13138,4.01156 6.71562,4.41159 9.75735,6.68085 3.44024,2.56656 10.36266,8.38838 13.23358,11.1296 9.61618,9.18167 17.07824,19.56608 21.90876,30.48893 6.64724,15.03064 8.79682,29.38558 7.3264,48.92287 -0.19174,2.54827 -0.43302,5.31458 -0.53676,6.14733 -0.22442,1.80321 -0.54519,1.69431 4.84944,1.65334 7.59303,-0.0576 8.33656,0.0255 8.30276,1.71827 0.0769,0.26378 0.0948,0.54125 -0.0301,0.95064 -0.005,0.045 -0.0132,0.0942 -0.0259,0.14589 -0.0201,0.11716 -0.0454,0.22573 -0.0799,0.314 -0.0298,0.0763 -0.13245,0.25073 -0.30213,0.51701 -0.36805,0.75409 -1.06747,1.89845 -2.45558,4.13201 -0.45078,0.7254 -2.52359,3.67049 -4.60596,6.54477 -2.08229,2.87433 -6.01223,8.31233 -8.7335,12.08434 -10.7601,14.91458 -10.73045,14.88024 -12.3135,14.26089 -0.97047,-0.37969 -1.56266,-1.51904 -2.208,-4.24835 -0.30527,-1.29112 -1.03693,-4.21287 -1.62567,-6.49265 -2.22059,-8.59961 -3.13551,-12.1898 -4.61128,-18.09424 -0.49292,-1.9722 -1.27533,-5.00878 -1.73901,-6.74776 -1.71333,-6.42668 -2.41271,-9.90823 -2.13348,-10.62194 0.79878,-2.04167 2.43678,-1.90967 8.29336,0.66775 3.64813,1.60544 4.42252,1.87535 4.53753,1.58138 0.0756,-0.19528 0.003,-2.0652 -0.16226,-4.15537 -1.10429,-13.9826 -5.03239,-25.85946 -12.09817,-36.58169 -5.67483,-8.61146 -11.50745,-13.65065 -20.19225,-17.44561 -9.23405,-4.03498 -17.02298,-4.11937 -21.53203,-0.23341 -3.57151,3.07798 -7.52149,9.63766 -11.65623,19.3581 -2.94918,6.9333 -11.89747,27.91235 -18.14257,42.53561 -2.87977,6.74316 -7.13011,16.75088 -9.44556,22.23924 -2.31544,5.48836 -5.7816,13.65657 -7.70247,18.15161 -7.85676,18.38571 -10.49197,24.56584 -13.0454,30.59364 l -2.68111,6.32902 14.97061,5.85494 14.97113,5.85515 1.0143,-0.69368 c 1.36092,-0.93076 4.52291,-1.95546 6.54949,-2.12218 2.06345,-0.16975 5.04772,0.31166 7.24039,1.16871 3.5053,1.37034 6.13777,3.79132 7.95645,7.31948 4.38819,8.51302 0.27097,18.73162 -8.81327,21.87471 -3.82739,1.32421 -6.96849,1.24923 -10.76249,-0.2574 -4.28281,-1.70072 -7.12666,-4.58281 -8.84631,-8.96481 l -0.82617,-2.10427 -15.09233,-5.96645 -15.09285,-5.96666 -0.7432,1.49783 c -0.40884,0.82377 -1.94436,4.38152 -3.41224,7.90611 -1.46787,3.52459 -3.14238,7.43038 -3.72124,8.67951 l -1.0527,2.27104 1.85079,1.98696 c 3.91763,4.20606 6.33729,9.8907 6.81474,16.01025 0.324,4.15267 -0.04,7.38082 -1.2325,10.92887 -3.68049,10.95037 -14.32319,18.52884 -26.14212,18.6157 -2.08122,0.0151 -5.39242,-0.83472 -8.69479,-2.05563 -0.16143,-0.0589 -0.32156,-0.12043 -0.48275,-0.18135 -0.18881,-0.0717 -0.3771,-0.14217 -0.56533,-0.21581 -0.0555,-0.0217 -0.11221,-0.0407 -0.16772,-0.0624 z m 4.51622,-11.15793 c 2.19252,0.86907 4.6661,1.23642 7.29828,0.94333 3.88735,-0.43286 7.11715,-2.22195 9.79462,-5.42537 1.4689,-1.75744 2.99623,-5.48967 3.19144,-7.79861 0.46333,-5.47984 -1.87012,-10.59135 -6.20066,-13.58257 -1.7502,-1.2089 -4.55531,-2.32042 -6.53191,-2.58818 -6.88585,-0.93267 -13.16152,2.81929 -15.74008,9.41003 -3.13363,8.0095 1.02615,16.2022 8.18832,19.04134 z"
       id="path853"
       inkscape:connector-curvature="0" /></g></svg>